<mxfile host="app.diagrams.net" agent="Mozilla/5.0 (X11; Ubuntu; Linux x86_64; rv:141.0) Gecko/20100101 Firefox/141.0" version="28.0.7">
  <diagram name="Page-1" id="UdgtCOg9UXMHosfVLhvG">
    <mxGraphModel dx="1495" dy="878" grid="1" gridSize="10" guides="1" tooltips="1" connect="1" arrows="1" fold="1" page="1" pageScale="1" pageWidth="1169" pageHeight="827" math="0" shadow="0">
      <root>
        <mxCell id="0" />
        <mxCell id="1" parent="0" />
        <mxCell id="MHuZDl--qb3jeEwY4W-m-1" value="&lt;div align=&quot;left&quot;&gt;&amp;nbsp;&lt;b&gt;&lt;font style=&quot;font-size: 15px;&quot;&gt;users&lt;/font&gt;&lt;/b&gt;&lt;hr&gt;&lt;/div&gt;&lt;div align=&quot;left&quot;&gt;&amp;nbsp;&lt;span style=&quot;color: light-dark(rgb(0, 0, 0), rgb(255, 255, 0));&quot;&gt;&lt;b&gt;user_id&lt;/b&gt;&lt;span style=&quot;white-space: pre;&quot;&gt;&#x9;&lt;/span&gt;&lt;/span&gt;&lt;span style=&quot;white-space: pre;&quot;&gt;&#x9;&lt;span style=&quot;white-space: pre;&quot;&gt;&#x9;&lt;/span&gt;&lt;/span&gt;&lt;font style=&quot;color: light-dark(rgb(0, 0, 0), rgb(255, 255, 0));&quot;&gt;INT AUTO_INCREMENT PK&lt;/font&gt;&lt;br&gt;&amp;nbsp;username&lt;span style=&quot;white-space: pre;&quot;&gt;&#x9;&lt;/span&gt;&lt;span style=&quot;white-space: pre;&quot;&gt;&#x9;&lt;/span&gt;&lt;font&gt;VARCHAR, UNIQUE&lt;/font&gt;&lt;/div&gt;&lt;div align=&quot;left&quot;&gt;&amp;nbsp;nickname&lt;span style=&quot;white-space: pre;&quot;&gt;&#x9;&lt;span style=&quot;white-space: pre;&quot;&gt;&#x9;&lt;/span&gt;&lt;/span&gt;&lt;font&gt;VARCHAR, UNIQUE&lt;/font&gt;&lt;br&gt;&amp;nbsp;email&lt;span style=&quot;white-space: pre;&quot;&gt;&#x9;&lt;/span&gt;&lt;span style=&quot;white-space: pre;&quot;&gt;&#x9;&lt;/span&gt;&lt;span style=&quot;white-space: pre;&quot;&gt;&#x9;&lt;/span&gt;&lt;font&gt;VARCHAR, UNIQUE&lt;/font&gt;&lt;br&gt;&amp;nbsp;password_hash &lt;span style=&quot;white-space: pre;&quot;&gt;&#x9;&lt;/span&gt;VARCHAR&lt;br&gt;&amp;nbsp;twofa_secret&amp;nbsp;&amp;nbsp; &lt;span style=&quot;white-space: pre;&quot;&gt;&#x9;&lt;/span&gt;VARCHAR, encrypted&lt;br&gt;&amp;nbsp;avatar&amp;nbsp;&amp;nbsp;&amp;nbsp;&amp;nbsp;&amp;nbsp;&amp;nbsp;&amp;nbsp;&amp;nbsp; &lt;span style=&quot;white-space: pre;&quot;&gt;&#x9;&lt;/span&gt;&lt;span style=&quot;white-space: pre;&quot;&gt;&#x9;&lt;/span&gt;TEXT or URL&lt;br&gt;&amp;nbsp;preferred_lang &lt;span style=&quot;white-space: pre;&quot;&gt;&#x9;&lt;/span&gt;VARCHAR, default &#39;en&#39;&lt;br&gt;&amp;nbsp;created_at&amp;nbsp;&amp;nbsp;&amp;nbsp;&amp;nbsp;&lt;span style=&quot;white-space: pre;&quot;&gt;&#x9;&lt;/span&gt; &lt;span style=&quot;white-space: pre;&quot;&gt;&#x9;&lt;/span&gt;DATETIME&lt;br&gt;&amp;nbsp;updated_at&amp;nbsp;&amp;nbsp;&amp;nbsp;&amp;nbsp; &lt;span style=&quot;white-space: pre;&quot;&gt;&#x9;&lt;/span&gt;DATETIME&lt;/div&gt;&lt;div align=&quot;left&quot;&gt;&lt;br&gt;&lt;/div&gt;" style="rounded=0;whiteSpace=wrap;html=1;align=left;glass=0;fontSize=12;spacingTop=2;spacing=10;strokeWidth=2;" parent="1" vertex="1">
          <mxGeometry x="47" y="330" width="280" height="220" as="geometry" />
        </mxCell>
        <mxCell id="MHuZDl--qb3jeEwY4W-m-3" value="&lt;div align=&quot;left&quot;&gt;&amp;nbsp;&lt;b&gt;&lt;font style=&quot;font-size: 15px;&quot;&gt;friendships&lt;/font&gt;&lt;/b&gt;&lt;hr&gt;&lt;/div&gt;&lt;div align=&quot;left&quot;&gt;&amp;nbsp;&lt;span style=&quot;color: light-dark(rgb(0, 0, 0), rgb(255, 102, 102));&quot;&gt;&lt;span style=&quot;color: light-dark(rgb(0, 0, 0), rgb(255, 255, 102));&quot;&gt;user_id&lt;/span&gt;&lt;/span&gt;&lt;span style=&quot;white-space: pre;&quot;&gt;&lt;span style=&quot;white-space: pre;&quot;&gt;&#x9;&lt;/span&gt;&lt;span style=&quot;white-space: pre;&quot;&gt;&#x9;&lt;/span&gt;&lt;span style=&quot;white-space: pre;&quot;&gt;&#x9;&lt;/span&gt;&lt;span style=&quot;color: light-dark(rgb(0, 0, 0), rgb(255, 255, 102));&quot;&gt;INT&lt;/span&gt;&lt;/span&gt;&lt;/div&gt;&lt;div align=&quot;left&quot;&gt;&lt;span style=&quot;white-space: pre;&quot;&gt; &lt;span style=&quot;color: light-dark(rgb(0, 0, 0), rgb(255, 255, 102));&quot;&gt;friend_id&lt;span style=&quot;white-space: pre;&quot;&gt;&#x9;&lt;/span&gt;&lt;span style=&quot;white-space: pre;&quot;&gt;&#x9;&lt;/span&gt;&lt;span style=&quot;white-space: pre;&quot;&gt;&#x9;&lt;/span&gt;INT&lt;/span&gt;&lt;/span&gt;&lt;/div&gt;&lt;div align=&quot;left&quot;&gt;&amp;nbsp;status&lt;span style=&quot;white-space: pre;&quot;&gt;&lt;span style=&quot;white-space: pre;&quot;&gt;&#x9;&lt;/span&gt;&lt;/span&gt;&lt;font&gt;&lt;span style=&quot;white-space: pre;&quot;&gt;&#x9;&lt;/span&gt;&lt;span style=&quot;white-space: pre;&quot;&gt;&#x9;&lt;/span&gt;ENUM(&#39;pending&#39;, &#39;accepted&#39;...)&lt;/font&gt;&lt;br&gt;&amp;nbsp;created_at&lt;span style=&quot;white-space: pre;&quot;&gt;&#x9;&lt;/span&gt;&lt;span style=&quot;white-space: pre;&quot;&gt;&#x9;&lt;/span&gt;&lt;font&gt;DATETIME&lt;/font&gt;&lt;br&gt;&lt;/div&gt;" style="rounded=0;whiteSpace=wrap;html=1;align=left;glass=0;fontSize=12;spacingTop=2;spacing=10;strokeWidth=2;" parent="1" vertex="1">
          <mxGeometry x="437" y="120" width="293" height="130" as="geometry" />
        </mxCell>
        <mxCell id="MHuZDl--qb3jeEwY4W-m-5" value="&lt;div align=&quot;left&quot;&gt;&amp;nbsp;&lt;b&gt;&lt;font style=&quot;font-size: 15px;&quot;&gt;tournaments&lt;/font&gt;&lt;/b&gt;&lt;hr&gt;&lt;/div&gt;&lt;div align=&quot;left&quot;&gt;&amp;nbsp;&lt;span style=&quot;color: light-dark(rgb(0, 0, 0), rgb(255, 153, 153));&quot;&gt;tournament_id&lt;/span&gt;&lt;span style=&quot;white-space: pre;&quot;&gt;&#x9;&lt;/span&gt;&lt;span style=&quot;color: light-dark(rgb(0, 0, 0), rgb(255, 153, 153));&quot;&gt;INT&lt;/span&gt; &lt;span style=&quot;color: light-dark(rgb(0, 0, 0), rgb(255, 153, 153));&quot;&gt;AUTO_INCREMENT&lt;/span&gt; &lt;span style=&quot;color: light-dark(rgb(0, 0, 0), rgb(255, 153, 153));&quot;&gt;PK&lt;/span&gt;&lt;/div&gt;&lt;div align=&quot;left&quot;&gt;&amp;nbsp;tournament_name&lt;span style=&quot;white-space: pre;&quot;&gt;&#x9;&lt;/span&gt;&lt;font&gt;VARCHAR&lt;/font&gt;&lt;/div&gt;&lt;div align=&quot;left&quot;&gt;&amp;nbsp;start_datetime&lt;span style=&quot;white-space: pre;&quot;&gt;&lt;span style=&quot;white-space: pre;&quot;&gt;&#x9;&lt;/span&gt;&lt;/span&gt;&lt;font&gt;DATETIME&lt;/font&gt;&lt;br&gt;&amp;nbsp;end_datetime&lt;span style=&quot;white-space: pre;&quot;&gt;&#x9;&lt;/span&gt;&lt;span style=&quot;white-space: pre;&quot;&gt;&#x9;DATETIM&lt;/span&gt;&lt;font&gt;E&lt;/font&gt;&lt;br&gt;&amp;nbsp;players_limit&lt;span style=&quot;white-space: pre;&quot;&gt;&#x9;&lt;/span&gt;&lt;span style=&quot;white-space: pre;&quot;&gt;&#x9;&lt;/span&gt;INT&lt;br&gt;&amp;nbsp;winner_ID &amp;nbsp; &lt;span style=&quot;white-space: pre;&quot;&gt;&#x9;&lt;span style=&quot;white-space: pre;&quot;&gt;&#x9;&lt;/span&gt;INT&lt;/span&gt;&lt;br&gt;&lt;/div&gt;&lt;div align=&quot;left&quot;&gt;&lt;br&gt;&lt;/div&gt;" style="rounded=0;whiteSpace=wrap;html=1;align=left;glass=0;fontSize=12;spacingTop=2;spacing=10;strokeWidth=2;" parent="1" vertex="1">
          <mxGeometry x="826" y="178" width="279" height="160" as="geometry" />
        </mxCell>
        <mxCell id="MHuZDl--qb3jeEwY4W-m-6" value="&lt;div align=&quot;left&quot;&gt;&amp;nbsp;&lt;b&gt;&lt;font style=&quot;font-size: 15px;&quot;&gt;matches&lt;/font&gt;&lt;/b&gt;&lt;hr&gt;&lt;/div&gt;&lt;div align=&quot;left&quot;&gt;&lt;span style=&quot;background-color: light-dark(rgb(255, 255, 255), rgb(213, 232, 212));&quot;&gt;&lt;span style=&quot;background-color: light-dark(#ffffff, var(--ge-dark-color, #121212));&quot;&gt;&amp;nbsp;&lt;/span&gt;&lt;/span&gt;&lt;span style=&quot;color: light-dark(rgb(0, 0, 0), rgb(51, 255, 255));&quot;&gt;&lt;b&gt;match_ID&lt;/b&gt;&lt;span style=&quot;white-space: pre;&quot;&gt;&#x9;&lt;/span&gt;&lt;span style=&quot;white-space: pre;&quot;&gt;&#x9;&lt;/span&gt;INT AUTO_INCREMENT PK&lt;/span&gt;&lt;span style=&quot;color: light-dark(rgb(0, 0, 0), rgb(255, 153, 153));&quot;&gt;&lt;br&gt;&lt;/span&gt;&lt;/div&gt;&lt;div align=&quot;left&quot;&gt;&lt;span style=&quot;color: light-dark(rgb(0, 0, 0), rgb(255, 153, 153));&quot;&gt;&amp;nbsp;tournament_id&lt;/span&gt;&lt;span style=&quot;white-space: pre;&quot;&gt;&#x9;&lt;/span&gt;&lt;span style=&quot;color: light-dark(rgb(0, 0, 0), rgb(255, 153, 153));&quot;&gt;INT&lt;/span&gt;&lt;/div&gt;&lt;div align=&quot;left&quot;&gt;&amp;nbsp;round_number&lt;span style=&quot;white-space: pre;&quot;&gt;&#x9;&lt;/span&gt;&lt;span style=&quot;white-space: pre;&quot;&gt;INT&#x9;&lt;/span&gt;&lt;/div&gt;&lt;div align=&quot;left&quot;&gt;&amp;nbsp;match_datetime&lt;span style=&quot;white-space: pre;&quot;&gt;&lt;span style=&quot;white-space: pre;&quot;&gt;&#x9;&lt;/span&gt;&lt;/span&gt;&lt;font&gt;DATETIME&lt;/font&gt;&lt;br&gt;&amp;nbsp;&lt;span style=&quot;color: light-dark(rgb(0, 0, 0), rgb(255, 255, 153));&quot;&gt;player1_ID&lt;span style=&quot;white-space: pre;&quot;&gt;&#x9;&lt;/span&gt;&lt;span style=&quot;white-space: pre;&quot;&gt;&#x9;INT&lt;/span&gt;&lt;/span&gt;&lt;br&gt;&lt;span style=&quot;color: light-dark(rgb(0, 0, 0), rgb(255, 255, 153));&quot;&gt;&amp;nbsp;player2_ID&lt;span style=&quot;white-space: pre;&quot;&gt;&#x9;&lt;/span&gt;&lt;span style=&quot;white-space: pre;&quot;&gt;&#x9;&lt;/span&gt;INT&lt;/span&gt;&lt;br&gt;&amp;nbsp;score1&lt;span style=&quot;white-space: pre;&quot;&gt;&#x9;&lt;/span&gt; &amp;nbsp; &lt;span style=&quot;white-space: pre;&quot;&gt;&#x9;&lt;span style=&quot;white-space: pre;&quot;&gt;&#x9;&lt;/span&gt;INT&lt;/span&gt;&lt;br&gt;&lt;/div&gt;&lt;div align=&quot;left&quot;&gt;&amp;nbsp;score2&lt;span style=&quot;white-space: pre;&quot;&gt;&#x9;&lt;/span&gt;&lt;span style=&quot;white-space: pre;&quot;&gt;&#x9;&lt;/span&gt;&lt;span style=&quot;white-space: pre;&quot;&gt;&#x9;&lt;/span&gt;INT&lt;/div&gt;&lt;div align=&quot;left&quot;&gt;&amp;nbsp;winner_id&lt;span style=&quot;white-space: pre;&quot;&gt;&#x9;&lt;/span&gt;&lt;span style=&quot;white-space: pre;&quot;&gt;&#x9;&lt;/span&gt;INT&lt;/div&gt;" style="rounded=0;whiteSpace=wrap;html=1;align=left;glass=0;fontSize=12;spacingTop=2;spacing=10;strokeWidth=2;" parent="1" vertex="1">
          <mxGeometry x="825" y="365" width="280" height="200" as="geometry" />
        </mxCell>
        <mxCell id="MHuZDl--qb3jeEwY4W-m-7" value="&lt;div align=&quot;left&quot;&gt;&amp;nbsp;&lt;b&gt;&lt;font style=&quot;font-size: 15px;&quot;&gt;tournament_register&lt;/font&gt;&lt;/b&gt;&lt;hr&gt;&lt;/div&gt;&lt;div align=&quot;left&quot;&gt;&amp;nbsp;&lt;span style=&quot;color: light-dark(rgb(0, 0, 0), rgb(255, 102, 102));&quot;&gt;&lt;b&gt;tournament_id&lt;/b&gt;&lt;i&gt;&lt;span style=&quot;white-space: pre;&quot;&gt;&#x9;&lt;/span&gt;&lt;/i&gt;INT&lt;/span&gt;&lt;/div&gt;&lt;div align=&quot;left&quot;&gt;&amp;nbsp;&lt;span style=&quot;color: light-dark(rgb(0, 0, 0), rgb(255, 255, 153));&quot;&gt;user_id&lt;span style=&quot;white-space: pre;&quot;&gt;&#x9;&lt;/span&gt;&lt;span style=&quot;white-space: pre;&quot;&gt;&#x9;&lt;/span&gt;&lt;span style=&quot;white-space: pre;&quot;&gt;&#x9;&lt;/span&gt;INT&lt;/span&gt;&lt;/div&gt;&lt;div align=&quot;left&quot;&gt;&amp;nbsp;status&lt;span style=&quot;white-space: pre;&quot;&gt;&lt;span style=&quot;white-space: pre;&quot;&gt;&#x9;&lt;/span&gt;&lt;/span&gt;&lt;font&gt;&lt;span style=&quot;white-space: pre;&quot;&gt;&#x9;&lt;/span&gt;&lt;span style=&quot;white-space: pre;&quot;&gt;&#x9;ENUM(&#39;confirmed&#39;, &#39;waiting&#39;...)&lt;/span&gt;&lt;/font&gt;&lt;br&gt;&amp;nbsp;registered_at&lt;span style=&quot;white-space: pre;&quot;&gt;&#x9;&lt;/span&gt;&lt;span style=&quot;white-space: pre;&quot;&gt;&#x9;&lt;/span&gt;&lt;font&gt;DATETIME&lt;/font&gt;&lt;br&gt;&lt;/div&gt;" style="rounded=0;whiteSpace=wrap;html=1;align=left;glass=0;fontSize=12;spacingTop=2;spacing=10;strokeWidth=2;" parent="1" vertex="1">
          <mxGeometry x="437" y="310" width="293" height="130" as="geometry" />
        </mxCell>
        <mxCell id="MHuZDl--qb3jeEwY4W-m-8" value="&lt;div align=&quot;left&quot;&gt;&amp;nbsp;&lt;b&gt;&lt;font style=&quot;font-size: 15px;&quot;&gt;games&lt;/font&gt;&lt;/b&gt;&lt;hr&gt;&lt;/div&gt;&lt;div align=&quot;left&quot;&gt;&amp;nbsp;&lt;b&gt;&lt;span style=&quot;color: light-dark(rgb(0, 0, 0), rgb(102, 255, 102));&quot;&gt;game_id&lt;/span&gt;&lt;/b&gt;&lt;span style=&quot;white-space: pre;&quot;&gt;&#x9;&lt;/span&gt;&lt;span style=&quot;white-space: pre;&quot;&gt;&#x9;&lt;/span&gt;&lt;span style=&quot;color: light-dark(rgb(0, 0, 0), rgb(102, 255, 102));&quot;&gt;INT AUTO_INCREMENT PK&lt;span style=&quot;color: light-dark(rgb(0, 0, 0), rgb(255, 255, 153));&quot;&gt;&lt;br&gt;&lt;/span&gt;&lt;/span&gt;&lt;/div&gt;&lt;div align=&quot;left&quot;&gt;&lt;span style=&quot;color: light-dark(rgb(0, 0, 0), rgb(255, 255, 153));&quot;&gt;&amp;nbsp;player&lt;span style=&quot;white-space: pre;&quot;&gt;_id&lt;/span&gt;&lt;span style=&quot;white-space: pre;&quot;&gt;&#x9;&lt;/span&gt;&lt;span style=&quot;white-space: pre;&quot;&gt;&#x9;&lt;/span&gt;INT&lt;/span&gt;&amp;nbsp;&lt;/div&gt;&lt;div align=&quot;left&quot;&gt;&amp;nbsp;played_at&lt;span style=&quot;white-space: pre;&quot;&gt;&lt;span style=&quot;white-space: pre;&quot;&gt;&#x9;&lt;span style=&quot;white-space: pre;&quot;&gt;&#x9;&lt;/span&gt;&lt;/span&gt;&lt;/span&gt;&lt;font&gt;DATETIME&lt;/font&gt;&lt;br&gt;&amp;nbsp;score&lt;span style=&quot;white-space: pre;&quot;&gt;&#x9;&lt;/span&gt;&lt;span style=&quot;white-space: pre;&quot;&gt;&#x9;&lt;/span&gt;&lt;span style=&quot;white-space: pre;&quot;&gt;&#x9;INT&lt;/span&gt;&lt;br&gt;&amp;nbsp;blocks_destroyed&lt;span style=&quot;white-space: pre;&quot;&gt;&#x9;&lt;/span&gt;INT&lt;br&gt;&amp;nbsp;game_duration&lt;span style=&quot;white-space: pre;&quot;&gt;&#x9;INT&lt;/span&gt;&lt;br&gt;&lt;/div&gt;&lt;div align=&quot;left&quot;&gt;&lt;br&gt;&lt;/div&gt;" style="rounded=0;whiteSpace=wrap;html=1;align=left;glass=0;fontSize=12;spacingTop=2;spacing=10;strokeWidth=2;" parent="1" vertex="1">
          <mxGeometry x="437" y="546" width="293" height="160" as="geometry" />
        </mxCell>
        <mxCell id="-MmSUzmKGsfKyfyNyLE_-3" value="" style="endArrow=classic;html=1;rounded=0;exitX=1;exitY=0.25;exitDx=0;exitDy=0;entryX=-0.004;entryY=0.58;entryDx=0;entryDy=0;entryPerimeter=0;strokeColor=light-dark(#000000,#FFFF66);align=center;verticalAlign=middle;fontFamily=Helvetica;fontSize=11;fontColor=default;labelBackgroundColor=default;curved=1;" edge="1" parent="1" source="MHuZDl--qb3jeEwY4W-m-1" target="MHuZDl--qb3jeEwY4W-m-7">
          <mxGeometry width="50" height="50" relative="1" as="geometry">
            <mxPoint x="397" y="470" as="sourcePoint" />
            <mxPoint x="447" y="420" as="targetPoint" />
          </mxGeometry>
        </mxCell>
        <mxCell id="-MmSUzmKGsfKyfyNyLE_-4" value="" style="curved=1;endArrow=classic;html=1;rounded=0;entryX=0;entryY=0.462;entryDx=0;entryDy=0;entryPerimeter=0;strokeColor=light-dark(#000000,#FFFF66);" edge="1" parent="1" target="MHuZDl--qb3jeEwY4W-m-3">
          <mxGeometry width="50" height="50" relative="1" as="geometry">
            <mxPoint x="327" y="385" as="sourcePoint" />
            <mxPoint x="417" y="220" as="targetPoint" />
            <Array as="points">
              <mxPoint x="377" y="380" />
              <mxPoint x="377" y="180" />
            </Array>
          </mxGeometry>
        </mxCell>
        <mxCell id="-MmSUzmKGsfKyfyNyLE_-5" value="" style="curved=1;endArrow=classic;html=1;rounded=0;exitX=1;exitY=0.25;exitDx=0;exitDy=0;entryX=0;entryY=0.441;entryDx=0;entryDy=0;entryPerimeter=0;strokeColor=light-dark(#000000,#FFFF66);align=center;verticalAlign=middle;fontFamily=Helvetica;fontSize=11;fontColor=default;labelBackgroundColor=default;" edge="1" parent="1" source="MHuZDl--qb3jeEwY4W-m-1" target="MHuZDl--qb3jeEwY4W-m-8">
          <mxGeometry width="50" height="50" relative="1" as="geometry">
            <mxPoint x="347" y="430" as="sourcePoint" />
            <mxPoint x="397" y="580" as="targetPoint" />
            <Array as="points">
              <mxPoint x="367" y="400" />
              <mxPoint x="367" y="610" />
            </Array>
          </mxGeometry>
        </mxCell>
        <mxCell id="-MmSUzmKGsfKyfyNyLE_-6" value="" style="curved=1;endArrow=classic;html=1;rounded=0;entryX=-0.002;entryY=0.594;entryDx=0;entryDy=0;entryPerimeter=0;exitX=1;exitY=0.25;exitDx=0;exitDy=0;strokeColor=light-dark(#000000,#FFFF66);align=center;verticalAlign=middle;fontFamily=Helvetica;fontSize=11;fontColor=default;labelBackgroundColor=default;" edge="1" parent="1" source="MHuZDl--qb3jeEwY4W-m-1" target="MHuZDl--qb3jeEwY4W-m-3">
          <mxGeometry width="50" height="50" relative="1" as="geometry">
            <mxPoint x="332" y="384" as="sourcePoint" />
            <mxPoint x="442" y="179" as="targetPoint" />
            <Array as="points">
              <mxPoint x="397" y="370" />
              <mxPoint x="387" y="200" />
            </Array>
          </mxGeometry>
        </mxCell>
        <mxCell id="-MmSUzmKGsfKyfyNyLE_-7" value="" style="curved=1;endArrow=classic;html=1;rounded=0;entryX=-0.002;entryY=0.592;entryDx=0;entryDy=0;entryPerimeter=0;exitX=1;exitY=0.25;exitDx=0;exitDy=0;strokeColor=light-dark(#000000,#FFFF66);align=center;verticalAlign=middle;fontFamily=Helvetica;fontSize=11;fontColor=default;labelBackgroundColor=default;" edge="1" parent="1" source="MHuZDl--qb3jeEwY4W-m-1" target="MHuZDl--qb3jeEwY4W-m-6">
          <mxGeometry width="50" height="50" relative="1" as="geometry">
            <mxPoint x="327" y="390" as="sourcePoint" />
            <mxPoint x="797" y="490" as="targetPoint" />
            <Array as="points">
              <mxPoint x="397" y="400" />
              <mxPoint x="417" y="470" />
              <mxPoint x="587" y="483" />
            </Array>
          </mxGeometry>
        </mxCell>
        <mxCell id="-MmSUzmKGsfKyfyNyLE_-8" value="" style="curved=1;endArrow=classic;html=1;rounded=0;entryX=0;entryY=0.669;entryDx=0;entryDy=0;entryPerimeter=0;exitX=1;exitY=0.25;exitDx=0;exitDy=0;strokeColor=light-dark(#000000,#FFFF66);align=center;verticalAlign=middle;fontFamily=Helvetica;fontSize=11;fontColor=default;labelBackgroundColor=default;" edge="1" parent="1" source="MHuZDl--qb3jeEwY4W-m-1" target="MHuZDl--qb3jeEwY4W-m-6">
          <mxGeometry width="50" height="50" relative="1" as="geometry">
            <mxPoint x="328" y="401" as="sourcePoint" />
            <mxPoint x="817" y="499" as="targetPoint" />
            <Array as="points">
              <mxPoint x="387" y="420" />
              <mxPoint x="397" y="486" />
              <mxPoint x="588" y="499" />
            </Array>
          </mxGeometry>
        </mxCell>
        <mxCell id="-MmSUzmKGsfKyfyNyLE_-10" value="" style="curved=1;endArrow=classic;html=1;rounded=0;exitX=1;exitY=0.466;exitDx=0;exitDy=0;exitPerimeter=0;entryX=-0.003;entryY=0.347;entryDx=0;entryDy=0;entryPerimeter=0;strokeColor=light-dark(#000000,#FF9999);" edge="1" parent="1" source="MHuZDl--qb3jeEwY4W-m-7" target="MHuZDl--qb3jeEwY4W-m-5">
          <mxGeometry width="50" height="50" relative="1" as="geometry">
            <mxPoint x="727" y="370" as="sourcePoint" />
            <mxPoint x="817" y="230" as="targetPoint" />
            <Array as="points">
              <mxPoint x="757" y="370" />
              <mxPoint x="757" y="240" />
            </Array>
          </mxGeometry>
        </mxCell>
        <mxCell id="-MmSUzmKGsfKyfyNyLE_-11" value="" style="curved=1;endArrow=classic;html=1;rounded=0;entryX=-0.003;entryY=0.377;entryDx=0;entryDy=0;entryPerimeter=0;exitX=0;exitY=0.345;exitDx=0;exitDy=0;exitPerimeter=0;strokeColor=light-dark(#000000,#FF9999);align=center;verticalAlign=middle;fontFamily=Helvetica;fontSize=11;fontColor=default;labelBackgroundColor=default;" edge="1" parent="1" source="MHuZDl--qb3jeEwY4W-m-5" target="MHuZDl--qb3jeEwY4W-m-6">
          <mxGeometry width="50" height="50" relative="1" as="geometry">
            <mxPoint x="807" y="260" as="sourcePoint" />
            <mxPoint x="787" y="450" as="targetPoint" />
            <Array as="points">
              <mxPoint x="777" y="280" />
              <mxPoint x="777" y="400" />
            </Array>
          </mxGeometry>
        </mxCell>
      </root>
    </mxGraphModel>
  </diagram>
</mxfile>
